<svg width="64" height="64" viewBox="0 0 64 64" fill="none" xmlns="http://www.w3.org/2000/svg">
  <defs>
    <linearGradient id="bg" x1="32" y1="4" x2="32" y2="60" gradientUnits="userSpaceOnUse">
      <stop stop-color="#FDFDFE"/>
      <stop offset="1" stop-color="#E9EDF3"/>
    </linearGradient>
    <filter id="dropShadow" x="0" y="0" width="64" height="64" filterUnits="userSpaceOnUse">
      <feDropShadow dx="0" dy="4" stdDeviation="4" flood-color="#000000" flood-opacity="0.25"/>
    </filter>
  </defs>
  <!-- Squircle background with gradient and shadow -->
  <rect x="4" y="4" width="56" height="56" rx="14" fill="url(#bg)"/>
  
  <!-- Original document silhouette, slightly enlarged -->
  <g transform="translate(14.1, 14.1)">
    <g transform="scale(1.12)">
      <path d="M18.67 2.67H8a2.67 2.67 0 0 0-2.67 2.66v21.34A2.67 2.67 0 0 0 8 29.33h16a2.67 2.67 0 0 0 2.67-2.66V10.67z" fill="#3B8EE8"/>
      <path d="M18.67 2.67V9.67C18.67 10.222 19.118 10.67 19.67 10.67H26.67L18.67 2.67Z" fill="#2E73CF"/>
      <g stroke="#FFFFFF" stroke-width="2.7" fill="none" stroke-linecap="round" stroke-linejoin="round">
        <line x1="21.33" y1="17.33" x2="10.67" y2="17.33"/>
        <line x1="21.33" y1="22.67" x2="10.67" y2="22.67"/>
        <polyline points="13.33 12 12 12 10.67 12"/>
      </g>
    </g>
  </g>
</svg>
