<svg width="64" height="64" viewBox="0 0 64 64" fill="none" xmlns="http://www.w3.org/2000/svg">
  <defs>
    <linearGradient id="bg" x1="32" y1="4" x2="32" y2="60" gradientUnits="userSpaceOnUse">
      <stop stop-color="#FDFDFE"/>
      <stop offset="1" stop-color="#E9EDF3"/>
    </linearGradient>
    <linearGradient id="paper" x1="30" y1="13" x2="30" y2="52" gradientUnits="userSpaceOnUse">
      <stop stop-color="#FFFFFF"/>
      <stop offset="1" stop-color="#F2F5F9"/>
    </linearGradient>
    <filter id="shadow" x="0" y="0" width="64" height="64" filterUnits="userSpaceOnUse">
      <feDropShadow dx="0" dy="4" stdDeviation="4" flood-color="#000000" flood-opacity="0.2"/>
    </filter>
  </defs>
  <rect x="4" y="4" width="56" height="56" rx="14" fill="url(#bg)"/>
  <g filter="url(#shadow)">
    <path d="M20 12h18l10 10v29a3 3 0 0 1-3 3H20a3 3 0 0 1-3-3V15a3 3 0 0 1 3-3Z" fill="url(#paper)"/>
    <path d="M38 12v8a2 2 0 0 0 2 2h8" fill="#DDE5EF"/>
    <path d="M20 12h18l10 10v29a3 3 0 0 1-3 3H20a3 3 0 0 1-3-3V15a3 3 0 0 1 3-3Z" stroke="#C9D3E0" stroke-width="1.5"/>
  </g>
  <rect x="13" y="32" width="38" height="15" rx="4" fill="#D73535"/>
  <path d="M21.2 43v-7.8h3.1c.9 0 1.7.2 2.2.7.5.4.8 1.1.8 1.9s-.3 1.5-.8 1.9c-.6.5-1.3.7-2.2.7h-1.1V43h-2Zm2-4.2h.9c.8 0 1.2-.3 1.2-1s-.4-1-1.2-1h-.9v2Zm5.4 4.2v-7.8h2.9c1.3 0 2.3.3 3 1s1.1 1.6 1.1 2.9-.4 2.2-1.1 2.9-1.7 1-3 1h-2.9Zm2-1.7h.7c1.5 0 2.2-.7 2.2-2.2s-.7-2.2-2.2-2.2h-.7v4.4Zm6.4 1.7v-7.8h5.4v1.7H39v1.5h3v1.7h-3V43h-2Z" fill="white"/>
</svg>
