<svg width="64" height="64" viewBox="0 0 64 64" fill="none" xmlns="http://www.w3.org/2000/svg">
  <defs>
    <linearGradient id="bg" x1="32" y1="4" x2="32" y2="60" gradientUnits="userSpaceOnUse">
      <stop stop-color="#404040"/>
      <stop offset="1" stop-color="#202020"/>
    </linearGradient>
  </defs>
  <rect x="4" y="4" width="56" height="56" rx="14" fill="url(#bg)"/>
  <g fill="#ffffff">
    <!-- Back left user -->
    <g opacity="0.5">
      <circle cx="18" cy="32" r="3.5"/>
      <path d="M13 44c0-2.761 2.239-5 5-5s5 2.239 5 5v4H13v-4Z"/>
    </g>
    <!-- Back right user -->
    <g opacity="0.5">
      <circle cx="46" cy="32" r="3.5"/>
      <path d="M41 44c0-2.761 2.239-5 5-5s5 2.239 5 5v4H41v-4Z"/>
    </g>
    <!-- Front user (centered, drawn last to cover overlaps) -->
    <circle cx="32" cy="26" r="6"/>
    <path d="M22 46c0-5.523 4.477-10 10-10s10 4.477 10 10v2H22v-2Z"/>
  </g>
</svg>
