<svg width="64" height="64" viewBox="0 0 64 64" fill="none" xmlns="http://www.w3.org/2000/svg">
  <defs>
    <linearGradient id="bg" x1="32" y1="4" x2="32" y2="60" gradientUnits="userSpaceOnUse">
      <stop stop-color="#404040"/>
      <stop offset="1" stop-color="#202020"/>
    </linearGradient>
    <filter id="dropShadow" x="0" y="0" width="64" height="64" filterUnits="userSpaceOnUse">
      <feDropShadow dx="0" dy="4" stdDeviation="4" flood-color="#000000" flood-opacity="0.25"/>
    </filter>
  </defs>
  <rect x="4" y="4" width="56" height="56" rx="14" fill="url(#bg)"/>
  <g transform="translate(14, 14) scale(1.5)" fill="#ffffff">
    <path fill-rule="evenodd" clip-rule="evenodd" d="M11.078 2.25c-.917 0-1.699.663-1.85 1.567L9.05 4.889c-.02.12-.115.26-.297.348a7.463 7.463 0 0 0-.872.454c-.17.103-.324.106-.44.067l-1.036-.36a1.875 1.875 0 0 0-2.282.82l-.923 1.597a1.875 1.875 0 0 0 .432 2.385l.84.692c.095.078.163.207.143.39a7.538 7.538 0 0 0 0 .965c.02.183-.048.312-.143.39l-.84.692a1.875 1.875 0 0 0-.432 2.385l.922 1.597a1.875 1.875 0 0 0 2.282.819l1.036-.36c.116-.038.27-.035.44.068.281.17.572.322.872.454.182.088.277.228.297.348l.178 1.072a1.875 1.875 0 0 0 1.85 1.567h1.844c.917 0 1.699-.663 1.85-1.567l.178-1.072c.02-.12.115-.26.297-.348.3-.132.59-.285.872-.454.17-.103.324-.106.44-.068l1.036.36a1.875 1.875 0 0 0 2.282-.82l.923-1.596a1.875 1.875 0 0 0-.432-2.385l-.84-.692c-.095-.078-.163-.207-.143-.39a7.538 7.538 0 0 0 0-.965c-.02-.183.048-.312.143-.39l.84-.692a1.875 1.875 0 0 0 .432-2.385l-.922-1.597a1.875 1.875 0 0 0-2.282-.819l-1.036.36c-.116.038-.27.035-.44-.068a7.46 7.46 0 0 0-.872-.454c-.182-.088-.277-.228-.297-.348l-.178-1.072a1.875 1.875 0 0 0-1.85-1.567h-1.844ZM12 15.75a3.75 3.75 0 1 0 0-7.5 3.75 3.75 0 0 0 0 7.5Z"/>
  </g>
</svg>
