<svg width="64" height="64" viewBox="0 0 64 64" fill="none" xmlns="http://www.w3.org/2000/svg">
  <defs>
    <linearGradient id="bg" x1="32" y1="4" x2="32" y2="60" gradientUnits="userSpaceOnUse">
      <stop stop-color="#10b981"/>
      <stop offset="1" stop-color="#059669"/>
    </linearGradient>
    <linearGradient id="db" x1="32" y1="16" x2="32" y2="48" gradientUnits="userSpaceOnUse">
      <stop stop-color="#ffffff"/>
      <stop offset="1" stop-color="#d1fae5"/>
    </linearGradient>
  </defs>
  <rect x="4" y="4" width="56" height="56" rx="14" fill="url(#bg)"/>
  <g transform="translate(16, 14)">
    <!-- Database cylinder -->
    <ellipse cx="16" cy="6" rx="12" ry="5" fill="url(#db)"/>
    <path d="M4 6v24c0 2.76 5.37 5 12 5s12-2.24 12-5V6" stroke="#ffffff" stroke-width="2" fill="none"/>
    <ellipse cx="16" cy="30" rx="12" ry="5" fill="none" stroke="#ffffff" stroke-width="2"/>
    <!-- Middle divider lines -->
    <path d="M4 14c0 2.76 5.37 5 12 5s12-2.24 12-5" stroke="#ffffff" stroke-width="1.5" fill="none" opacity="0.7"/>
    <path d="M4 22c0 2.76 5.37 5 12 5s12-2.24 12-5" stroke="#ffffff" stroke-width="1.5" fill="none" opacity="0.7"/>
  </g>
</svg>
