<svg width="64" height="64" viewBox="0 0 64 64" fill="none" xmlns="http://www.w3.org/2000/svg">
  <defs>
    <linearGradient id="bg" x1="32" y1="4" x2="32" y2="60" gradientUnits="userSpaceOnUse">
      <stop stop-color="#4a9eff"/>
      <stop offset="1" stop-color="#3b8ee8"/>
    </linearGradient>
    <filter id="dropShadow" x="0" y="0" width="64" height="64" filterUnits="userSpaceOnUse">
      <feDropShadow dx="0" dy="4" stdDeviation="4" flood-color="#000000" flood-opacity="0.25"/>
    </filter>
  </defs>
  <rect x="4" y="4" width="56" height="56" rx="14" fill="url(#bg)"/>
  <g transform="translate(14, 14) scale(1.5)" fill="#ffffff">
    <path d="M19.5 21a3 3 0 0 0 3-3v-4.5a3 3 0 0 0-3-3h-15a3 3 0 0 0-3 3V18a3 3 0 0 0 3 3h15ZM1.5 10.146V6a3 3 0 0 1 3-3h5.379a2.25 2.25 0 0 1 1.59.659l2.122 2.121c.14.141.331.22.53.22H19.5a3 3 0 0 1 3 3v1.146A4.483 4.483 0 0 0 19.5 9h-15a4.483 4.483 0 0 0-3 1.146Z" />
  </g>
</svg>
