<svg width="64" height="64" viewBox="0 0 64 64" fill="none" xmlns="http://www.w3.org/2000/svg">
  <defs>
    <linearGradient id="bg" x1="32" y1="4" x2="32" y2="60" gradientUnits="userSpaceOnUse">
      <stop stop-color="#FDFDFE"/>
      <stop offset="1" stop-color="#E9EDF3"/>
    </linearGradient>
  </defs>
  <rect x="4" y="4" width="56" height="56" rx="14" fill="url(#bg)"/>
  <path d="M15 25.5V21a5 5 0 0 1 5-5h8.2a3 3 0 0 1 2.12.88l2.8 2.8a3 3 0 0 0 2.12.88H44a5 5 0 0 1 5 5v1.2A6.98 6.98 0 0 0 44 24H20a6.98 6.98 0 0 0-5 1.5Z" fill="#3B8EE8"/>
  <path d="M15 27h34l-3.1 16.2A6 6 0 0 1 40 48H24a6 6 0 0 1-5.9-4.8L15 27Z" fill="#4A9EFF"/>
  <path d="m30 41 8-8m0 0h-6m6 0v6" stroke="white" stroke-width="3" stroke-linecap="round" stroke-linejoin="round"/>
</svg>
